<?xml version="1.0" encoding="UTF-8"?>
<!DOCTYPE svg PUBLIC "-//W3C//DTD SVG 1.1//EN" "http://www.w3.org/Graphics/SVG/1.1/DTD/svg11.dtd">
<!-- Creator: CorelDRAW X7 -->
<svg xmlns="http://www.w3.org/2000/svg" xml:space="preserve" width="279.4mm" height="215.9mm" version="1.1" style="shape-rendering:geometricPrecision; text-rendering:geometricPrecision; image-rendering:optimizeQuality; fill-rule:evenodd; clip-rule:evenodd"
viewBox="0 0 27940 21590"
 xmlns:xlink="http://www.w3.org/1999/xlink"
 data-name="Layer 1">
 <defs>
  <style type="text/css">
   <![CDATA[
    .fil3 {fill:#D16969}
    .fil1 {fill:#E26D6D}
    .fil2 {fill:#F4F6F9}
    .fil0 {fill:#FF7B7B}
    .fil4 {fill:#D6D8E5;fill-opacity:0.400000}
   ]]>
  </style>
 </defs>
 <g id="Layer_x0020_1">
  <metadata id="CorelCorpID_0Corel-Layer"/>
  <circle class="fil0" cx="10513" cy="12442" r="3136"/>
  <path class="fil1" d="M11728 15325c-387,163 -803,248 -1222,248 -1732,0 -3137,-1405 -3137,-3137 0,-1172 654,-2248 1695,-2786 -584,625 -909,1449 -909,2305 0,1864 1512,3376 3376,3376 68,0 132,-2 197,-6z"/>
  <circle class="fil1" cx="11386" cy="10509" r="297"/>
  <circle class="fil2" cx="8702" cy="10696" r="297"/>
  <circle class="fil2" cx="9762" cy="10509" r="223"/>
  <circle class="fil1" cx="10169" cy="12108" r="497"/>
  <circle class="fil2" cx="8500" cy="13097" r="497"/>
  <circle class="fil1" cx="10805" cy="13877" r="497"/>
  <circle class="fil3" cx="12389" cy="13580" r="297"/>
  <circle class="fil3" cx="9295" cy="14523" r="223"/>
  <circle class="fil3" cx="8588" cy="12006" r="223"/>
  <circle class="fil3" cx="12092" cy="11788" r="297"/>
  <g>
   <path class="fil0" d="M10169 9325c251,-531 221,-1460 221,-1460l261 0c0,0 33,1029 227,1460l-709 0zm0 0l0 0 0 0z"/>
  </g>
  <path class="fil1" d="M10655 7946l-4 0c-12,1 -23,1 -35,1 -77,0 -154,-14 -226,-41 -71,-28 0,-42 0,-42l262 0c0,0 1,48 3,82z"/>
  <ellipse class="fil0" cx="10524" cy="7738" rx="300" ry="150"/>
  <ellipse class="fil2" transform="matrix(1.37191 -0.321272 0.321272 1.37191 10366 7667.88)" rx="41" ry="18"/>
  <g>
   <path class="fil0" d="M11246 9449c319,-318 539,-996 539,-996l189 68c0,0 -243,751 -216,1114l-512 -186zm0 0l0 0 0 0z"/>
  </g>
  <path class="fil1" d="M11955 8580l0 0c-65,-19 -125,-53 -177,-97l10 -30 189 68c0,0 -13,34 -22,59z"/>
  <ellipse class="fil0" transform="matrix(0.47752 -1.32564 1.32564 0.47752 11915.2 8394.83)" rx="82" ry="163"/>
  <ellipse class="fil2" transform="matrix(0.162682 -1.3996 1.3996 0.162682 11818.7 8302.54)" rx="14" ry="31"/>
  <g>
   <path class="fil0" d="M11921 9743c331,-202 652,-727 652,-727l144 95c0,0 -355,580 -404,891l-392 -259zm0 0l0 0 0 0z"/>
  </g>
  <path class="fil1" d="M12690 9157l0 0c-51,-29 -95,-69 -129,-117l14 -23 145 95 -30 45z"/>
  <ellipse class="fil0" transform="matrix(0.772557 -1.17834 1.17834 0.772557 12693.2 8995.07)" rx="70" ry="141"/>
  <ellipse class="fil2" transform="matrix(0.483531 -1.32346 1.32346 0.483531 12630.3 8897.83)" rx="12" ry="27"/>
  <g>
   <path class="fil0" d="M9258 9668c44,-385 -171,-961 -171,-961l164 -55c0,0 238,638 452,868l-445 148zm0 0l0 0 0 0z"/>
  </g>
  <path class="fil1" d="M9270 8703l0 0c-48,19 -100,29 -153,29 -6,0 -12,0 -18,0 -6,0 -9,-26 -9,-26l163 -55 17 52z"/>
  <ellipse class="fil0" transform="matrix(1.33495 -0.450819 0.450819 1.33495 9143.97 8599.01)" rx="141" ry="70"/>
  <ellipse class="fil2" transform="matrix(1.197 -0.743328 0.743328 1.197 9030.05 8587.68)" rx="27" ry="12"/>
  <g>
   <path class="fil0" d="M13489 11800c365,125 973,35 973,35l19 173c0,0 -673,98 -943,258l-49 -466zm0 0l0 0 0 0z"/>
  </g>
  <path class="fil1" d="M14430 12016l0 -3c-3,-23 -5,-46 -5,-69 0,-35 4,-71 13,-105l27 -4 20 173 -55 8z"/>
  <ellipse class="fil0" transform="matrix(1.39999 -0.159261 0.159261 1.39999 14557.1 11914.6)" rx="70" ry="141"/>
  <ellipse class="fil2" transform="matrix(1.3268 -0.47428 0.47428 1.3268 14592.1 11805.4)" rx="12" ry="27"/>
  <g>
   <path class="fil0" d="M13557 12449c333,200 946,243 946,243l-18 172c0,0 -679,-47 -977,52l49 -467zm0 0l0 0 0 0z"/>
  </g>
  <path class="fil1" d="M14431 12862l0 0c2,-59 18,-116 44,-169l27 0 -17 172 -54 -3z"/>
  <ellipse class="fil0" transform="matrix(0.143124 -1.40173 1.40173 0.143124 14577.1 12789.4)" rx="141" ry="70"/>
  <ellipse class="fil2" transform="matrix(1.39493 -0.183173 0.183173 1.39493 14648 12633.4)" rx="12" ry="27"/>
  <g>
   <path class="fil0" d="M13283 13704c221,320 762,611 762,611l-87 150c0,0 -599,-324 -913,-356l238 -405zm0 0l0 0 0 0z"/>
  </g>
  <path class="fil1" d="M13911 14439l0 0c27,-52 65,-98 111,-135l23 13 -87 150 -47 -28z"/>
  <ellipse class="fil0" transform="matrix(0.708128 -1.21815 1.21815 0.708128 14072.8 14433)" rx="141" ry="70"/>
  <ellipse class="fil2" transform="matrix(0.411723 -1.34753 1.34753 0.411723 14165.5 14365.4)" rx="27" ry="12"/>
  <g>
   <path class="fil0" d="M13275 11076c449,40 1110,-229 1110,-229l70 188c0,0 -730,297 -993,553l-187 -512zm0 0l0 0 0 0z"/>
  </g>
  <path class="fil1" d="M14398 11060l0 0c-26,-60 -39,-125 -39,-191 0,-2 0,-5 0,-8l29 -11 70 188 -60 22z"/>
  <ellipse class="fil0" transform="matrix(1.32176 -0.488148 0.488148 1.32176 14512.5 10909)" rx="82" ry="163"/>
  <ellipse class="fil2" transform="matrix(1.17564 -0.776665 0.776665 1.17564 14520.6 10775.7)" rx="14" ry="31"/>
  <g>
   <path class="fil0" d="M13520 13118c324,313 1006,520 1006,520l-64 191c0,0 -756,-230 -1119,-195l177 -516zm0 0l0 0 0 0z"/>
  </g>
  <path class="fil1" d="M14402 13809l0 0c18,-66 50,-127 94,-179l30 9 -65 191 -59 -21z"/>
  <ellipse class="fil0" transform="matrix(0.45175 -1.33464 1.33464 0.45175 14586 13766.3)" rx="163" ry="82"/>
  <ellipse class="fil2" transform="matrix(0.135538 -1.40249 1.40249 0.135538 14676.4 13667.8)" rx="31" ry="14"/>
  <g>
   <path class="fil0" d="M12330 14932c37,449 414,1055 414,1055l-174 100c0,0 -417,-669 -713,-884l473 -271zm0 0l0 0 0 0z"/>
  </g>
  <path class="fil1" d="M12536 16034l0 0c57,-37 121,-62 188,-73l17 27 -174 101 -31 -55z"/>
  <ellipse class="fil0" transform="matrix(1.21951 -0.705788 0.705788 1.21951 12702.9 16122.8)" rx="163" ry="82"/>
  <ellipse class="fil2" transform="matrix(1.02646 -0.965258 0.965258 1.02646 12835.6 16107.5)" rx="31" ry="14"/>
  <g>
   <path class="fil0" d="M12618 10118c563,-164 1239,-803 1239,-803l174 196c0,0 -749,706 -944,1139l-469 -532zm0 0l0 0 0 0z"/>
  </g>
  <path class="fil1" d="M13972 9568l0 0c-62,-63 -111,-138 -142,-222 -31,-83 30,-28 30,-28l174 196 -62 54z"/>
  <ellipse class="fil0" transform="matrix(1.05464 -0.934382 0.934382 1.05464 14040.8 9330.41)" rx="106" ry="213"/>
  <ellipse class="fil2" transform="matrix(0.813812 -1.15024 1.15024 0.813812 13988.9 9164.5)" rx="18" ry="41"/>
  <g>
   <path class="fil0" d="M13136 14161c249,532 984,1100 984,1100l-167 202c0,0 -813,-630 -1271,-756l454 -546zm0 0l0 0 0 0z"/>
  </g>
  <path class="fil1" d="M13888 15414l0 -4c53,-71 120,-131 197,-174 78,-44 33,25 33,25l-167 202 -63 -49z"/>
  <ellipse class="fil0" transform="matrix(0.897006 -1.08661 1.08661 0.897006 14132.8 15443.6)" rx="213" ry="106"/>
  <ellipse class="fil2" transform="matrix(0.625839 -1.2624 1.2624 0.625839 14287.9 15370)" rx="41" ry="18"/>
  <g>
   <path class="fil1" d="M9977 15532c-389,441 -618,1339 -618,1339l-252 -73c0,0 255,-997 188,-1467l682 201zm0 0l0 0 0 0z"/>
  </g>
  <path class="fil3" d="M9127 16720l3 0c87,20 169,58 240,112l-11 39 -252 -73 20 -78z"/>
  <ellipse class="fil1" transform="matrix(0.391687 -1.35348 1.35348 0.391687 9194.58 16957.4)" rx="106" ry="213"/>
  <ellipse class="fil2" transform="matrix(0.0727601 -1.40714 1.40714 0.0727601 9327.04 17067.8)" rx="18" ry="41"/>
  <g>
   <path class="fil1" d="M7799 14015c-586,-15 -1423,387 -1423,387l-106 -239c0,0 928,-445 1245,-798l284 650zm0 0l0 0 0 0z"/>
  </g>
  <path class="fil3" d="M6343 14126l0 4c40,79 64,166 68,255l-37 17 -106 -239 75 -37z"/>
  <ellipse class="fil1" transform="matrix(1.2891 -0.568829 0.568829 1.2891 6205.66 14330)" rx="106" ry="213"/>
  <ellipse class="fil2" transform="matrix(1.12559 -0.847577 0.847577 1.12559 6203.68 14505.1)" rx="18" ry="41"/>
  <g>
   <path class="fil1" d="M7701 11053c-312,-497 -1111,-973 -1111,-973l142 -219c0,0 884,527 1354,596l-385 596zm0 0l0 0 0 0z"/>
  </g>
  <path class="fil3" d="M6802 9902l0 4c-43,77 -103,144 -175,197l-35 -22 140 -220 70 41z"/>
  <ellipse class="fil1" transform="matrix(0.758725 -1.1873 1.1873 0.758725 6555.33 9899.5)" rx="213" ry="106"/>
  <ellipse class="fil2" transform="matrix(0.468022 -1.32902 1.32902 0.468022 6410.58 9994.42)" rx="41" ry="18"/>
  <g>
   <path class="fil1" d="M8436 10209c-103,-442 -564,-990 -564,-990l158 -121c0,0 512,608 837,776l-431 335zm0 0l0 0 0 0z"/>
  </g>
  <path class="fil3" d="M8074 9142l0 0c-52,45 -112,79 -177,99 -66,20 -20,-24 -20,-24l158 -122 39 47z"/>
  <ellipse class="fil1" transform="matrix(1.10577 -0.873282 0.873282 1.10577 7893.59 9078.4)" rx="164" ry="82"/>
  <ellipse class="fil2" transform="matrix(0.877521 -1.10241 1.10241 0.877521 7764.58 9111.6)" rx="32" ry="14"/>
  <g>
   <path class="fil1" d="M7523 13022c-426,-147 -1138,-45 -1138,-45l-23 -200c0,0 784,-113 1100,-300l61 545zm0 0l0 0 0 0z"/>
  </g>
  <path class="fil3" d="M6422 12768l0 3c5,26 7,53 7,80 0,41 -5,83 -16,123l-31 3 -22 -200 62 -9z"/>
  <ellipse class="fil1" transform="matrix(1.40029 -0.156573 0.156573 1.40029 6273.54 12885.4)" rx="82" ry="164"/>
  <ellipse class="fil2" transform="matrix(1.32779 -0.4715 0.4715 1.32779 6231.51 13014.3)" rx="14" ry="32"/>
  <g>
   <path class="fil1" d="M9076 15131c-384,240 -752,855 -752,855l-169 -109c0,0 408,-681 461,-1044l460 298zm0 0l0 0 0 0z"/>
  </g>
  <path class="fil3" d="M8186 15822l0 0c60,34 112,80 152,135l-16 27 -170 -109 34 -53z"/>
  <ellipse class="fil1" transform="matrix(0.760871 -1.18358 1.18358 0.760871 8152.54 16014.8)" rx="82" ry="164"/>
  <ellipse class="fil2" transform="matrix(0.471036 -1.32796 1.32796 0.471036 8257.7 16125.5)" rx="14" ry="32"/>
  <g>
   <path class="fil1" d="M11295 15359c-82,356 61,915 61,915l-159 35c0,0 -156,-620 -331,-858l429 -92zm0 0l0 0 0 0z"/>
  </g>
  <path class="fil3" d="M11181 16260l0 0c34,-10 69,-15 104,-15 20,0 40,2 59,5l7 25 -160 35c0,0 -4,-28 -10,-50z"/>
  <ellipse class="fil1" transform="matrix(1.37673 -0.299924 0.299924 1.37673 11286.7 16370.4)" rx="132" ry="66"/>
  <ellipse class="fil2" transform="matrix(1.27208 -0.605933 0.605933 1.27208 11393.5 16391.7)" rx="25" ry="11"/>
  <g>
   <path class="fil1" d="M10799 15477c-187,412 -154,1128 -154,1128l-202 3c0,0 -36,-790 -191,-1125l547 -6zm0 0l0 0 0 0z"/>
  </g>
  <path class="fil3" d="M10439 16545l0 0c12,-1 23,-1 35,-1 57,0 113,10 167,30 53,20 0,31 0,31l-202 3c0,0 4,-35 0,-63z"/>
  <ellipse class="fil1" transform="matrix(1.40888 -0.0199189 0.0199189 1.40888 10543.3 16705.1)" rx="164" ry="82"/>
  <ellipse class="fil2" transform="matrix(1.36723 -0.340634 0.340634 1.36723 10667.5 16756.5)" rx="32" ry="14"/>
  <g>
   <path class="fil1" d="M7444 11828c-291,-216 -857,-310 -857,-310l32 -158c0,0 627,105 913,39l-88 429zm0 0l0 0 0 0z"/>
  </g>
  <path class="fil3" d="M6671 11368l0 0c-7,54 -26,106 -56,152 -29,46 -25,-4 -25,-4l32 -158 49 10z"/>
  <ellipse class="fil1" transform="matrix(0.275369 -1.38185 1.38185 0.275369 6525.83 11421.6)" rx="131" ry="66"/>
  <ellipse class="fil2" transform="matrix(1.40824 -0.0469621 0.0469621 1.40824 6465.57 11509.2)" rx="11" ry="25"/>
  <g>
   <path class="fil1" d="M8472 14648c-372,122 -808,555 -808,555l-122 -127c0,0 487,-482 608,-773l322 345zm0 0l0 0 0 0z"/>
  </g>
  <path class="fil3" d="M7584 15037l0 0c43,42 77,93 99,150l-19 19 -122 -127c0,0 25,-24 42,-42z"/>
  <ellipse class="fil1" transform="matrix(1.02898 -0.962568 0.962568 1.02898 7541.2 15196)" rx="71" ry="141"/>
  <ellipse class="fil2" transform="matrix(0.782401 -1.17183 1.17183 0.782401 7578.73 15304.2)" rx="12" ry="27"/>
  <circle class="fil0" cx="15612" cy="4812" r="1654"/>
  <circle class="fil1" cx="16072" cy="3792" r="156"/>
  <circle class="fil2" cx="14657" cy="3891" r="156"/>
  <circle class="fil2" cx="15216" cy="3792" r="117"/>
  <circle class="fil1" cx="15431" cy="4635" r="262"/>
  <circle class="fil2" cx="14550" cy="5157" r="262"/>
  <circle class="fil1" cx="15766" cy="5569" r="262"/>
  <circle class="fil3" cx="16601" cy="5412" r="156"/>
  <circle class="fil3" cx="14970" cy="5909" r="117"/>
  <circle class="fil3" cx="14596" cy="4582" r="117"/>
  <circle class="fil3" cx="16445" cy="4467" r="156"/>
  <g>
   <path class="fil0" d="M15432 3168c132,-280 117,-770 117,-770l138 0c0,0 17,543 121,771l-376 -1zm0 0l0 0 0 0z"/>
  </g>
  <path class="fil1" d="M15687 2442l0 0c-7,0 -13,0 -19,0 -41,0 -81,-7 -119,-22 -38,-14 0,-22 0,-22l138 0c0,0 -1,25 0,44z"/>
  <ellipse class="fil0" cx="15617" cy="2331" rx="158" ry="79"/>
  <ellipse class="fil2" transform="matrix(1.37191 -0.321272 0.321272 1.37191 15534 2293.58)" rx="22" ry="10"/>
  <g>
   <path class="fil0" d="M15998 3234c169,-168 285,-526 285,-526l100 36c0,0 -129,396 -115,588l-270 -98zm0 0l0 0 0 0z"/>
  </g>
  <path class="fil1" d="M16372 2775l0 0c-34,-10 -66,-28 -93,-51l5 -16 100 36c0,0 -7,18 -12,31z"/>
  <ellipse class="fil0" transform="matrix(0.47752 -1.32564 1.32564 0.47752 16350.6 2677.23)" rx="43" ry="86"/>
  <ellipse class="fil2" transform="matrix(0.162682 -1.3996 1.3996 0.162682 16300.2 2628.78)" rx="7" ry="16"/>
  <g>
   <path class="fil0" d="M16355 3389c174,-107 343,-384 343,-384l77 50c0,0 -188,304 -214,470l-206 -136zm0 0l0 0 0 0z"/>
  </g>
  <path class="fil1" d="M16760 3079l0 0c-27,-15 -50,-36 -68,-61l7 -12 77 50 -16 23z"/>
  <ellipse class="fil0" transform="matrix(0.772557 -1.17834 1.17834 0.772557 16762.1 2993.72)" rx="37" ry="74"/>
  <ellipse class="fil2" transform="matrix(0.483531 -1.32346 1.32346 0.483531 16729.2 2942.95)" rx="6" ry="14"/>
  <g>
   <path class="fil0" d="M14950 3349c23,-203 -90,-507 -90,-507l86 -29c0,0 126,337 239,458l-235 78zm0 0l0 0 0 0z"/>
  </g>
  <path class="fil1" d="M14957 2840l0 0c-26,11 -54,16 -82,16 -3,0 -6,0 -9,0l-5 -14 87 -29 9 27z"/>
  <ellipse class="fil0" transform="matrix(1.33495 -0.450819 0.450819 1.33495 14889.9 2785.42)" rx="74" ry="37"/>
  <ellipse class="fil2" transform="matrix(1.197 -0.743328 0.743328 1.197 14829.6 2779.13)" rx="14" ry="6"/>
  <g>
   <path class="fil0" d="M17181 4473c194,66 515,19 515,19l10 91c0,0 -355,52 -498,136l-27 -246zm0 0l0 0 0 0z"/>
  </g>
  <path class="fil1" d="M17678 4587l0 0c-2,-12 -3,-24 -3,-36 0,-19 2,-37 7,-55l14 0 11 90 -29 1z"/>
  <ellipse class="fil0" transform="matrix(1.39999 -0.159261 0.159261 1.39999 17744.8 4534.93)" rx="37" ry="74"/>
  <ellipse class="fil2" transform="matrix(1.3268 -0.47428 0.47428 1.3268 17763.3 4476.13)" rx="6" ry="14"/>
  <g>
   <path class="fil0" d="M17218 4816c175,106 498,129 498,129l-9 90c0,0 -358,-25 -516,27l27 -246zm0 0l0 0 0 0z"/>
  </g>
  <path class="fil1" d="M17678 5033l0 0c1,-31 9,-61 23,-88l15 0 -10 90 -28 -2z"/>
  <ellipse class="fil0" transform="matrix(0.143124 -1.40173 1.40173 0.143124 17755.3 4995.53)" rx="74" ry="37"/>
  <ellipse class="fil2" transform="matrix(1.39744 -0.180256 0.180256 1.39744 17785.8 4941.87)" rx="6" ry="14"/>
  <g>
   <path class="fil0" d="M17075 5478c116,168 401,322 401,322l-46 79c0,0 -315,-171 -480,-188l125 -213zm0 0l0 0 0 0z"/>
  </g>
  <path class="fil1" d="M17403 5866l0 0c15,-28 35,-53 61,-72l12 7 -46 79 -27 -14z"/>
  <ellipse class="fil0" transform="matrix(0.708128 -1.21815 1.21815 0.708128 17489.3 5861.89)" rx="74" ry="37"/>
  <ellipse class="fil2" transform="matrix(0.411723 -1.34753 1.34753 0.411723 17537.5 5826.59)" rx="14" ry="6"/>
  <g>
   <path class="fil0" d="M17068 4092c237,20 586,-122 586,-122l37 99c0,0 -386,156 -524,291l-99 -268zm0 0l0 0 0 0z"/>
  </g>
  <path class="fil1" d="M17660 4083l0 0c-14,-32 -21,-66 -21,-100 0,-2 0,-4 0,-5l15 -6 37 99 -31 12z"/>
  <ellipse class="fil0" transform="matrix(1.32176 -0.488148 0.488148 1.32176 17721.4 4003.07)" rx="43" ry="86"/>
  <ellipse class="fil2" transform="matrix(1.17564 -0.776665 0.776665 1.17564 17725.8 3932.96)" rx="7" ry="16"/>
  <g>
   <path class="fil0" d="M17197 5168c171,165 531,274 531,274l-34 101c0,0 -399,-122 -590,-103l93 -272zm0 0l0 0 0 0z"/>
  </g>
  <path class="fil1" d="M17663 5533l0 0c9,-34 26,-66 49,-94l16 5 -34 100 -31 -11z"/>
  <ellipse class="fil0" transform="matrix(0.45175 -1.33464 1.33464 0.45175 17760.6 5510.32)" rx="86" ry="43"/>
  <ellipse class="fil2" transform="matrix(0.135538 -1.40249 1.40249 0.135538 17807.7 5458.43)" rx="16" ry="7"/>
  <g>
   <path class="fil0" d="M16570 6125c20,237 218,557 218,557l-91 52c0,0 -221,-354 -377,-466l250 -143zm0 0l0 0 0 0z"/>
  </g>
  <path class="fil1" d="M16678 6706l0 0c30,-19 64,-33 100,-38l8 14 -91 53 -17 -29z"/>
  <ellipse class="fil0" transform="matrix(1.21951 -0.705788 0.705788 1.21951 16767.2 6753.25)" rx="86" ry="43"/>
  <ellipse class="fil2" transform="matrix(1.02646 -0.965258 0.965258 1.02646 16836.7 6745.44)" rx="16" ry="7"/>
  <g>
   <path class="fil0" d="M16722 3586c297,-86 654,-426 654,-426l91 103c0,0 -392,376 -498,607l-247 -284zm0 0l0 0 0 0z"/>
  </g>
  <path class="fil1" d="M17436 3296l0 0c-33,-33 -59,-73 -76,-116l17 -15 91 103 -32 28z"/>
  <ellipse class="fil0" transform="matrix(1.05464 -0.934382 0.934382 1.05464 17472.2 3170.89)" rx="56" ry="112"/>
  <ellipse class="fil2" transform="matrix(0.813812 -1.15024 1.15024 0.813812 17444.8 3083.36)" rx="10" ry="22"/>
  <g>
   <path class="fil0" d="M16995 5719c132,281 519,580 519,580l-87 106c0,0 -430,-332 -669,-398l237 -288zm0 0l0 0 0 0z"/>
  </g>
  <path class="fil1" d="M17392 6379l0 0c28,-38 63,-69 104,-92l17 14 -87 106 -34 -28z"/>
  <ellipse class="fil0" transform="matrix(0.897006 -1.08661 1.08661 0.897006 17520.8 6395.14)" rx="112" ry="56"/>
  <ellipse class="fil2" transform="matrix(0.625839 -1.2624 1.2624 0.625839 17603.9 6356.56)" rx="22" ry="10"/>
  <g>
   <path class="fil1" d="M15329 6442c-205,232 -326,707 -326,707l-133 -39c0,0 135,-525 99,-773l360 105zm0 0l0 0 0 0z"/>
  </g>
  <path class="fil3" d="M14881 7069l0 0c45,11 88,31 126,60 37,29 -7,22 -7,22l-132 -39c0,0 8,-25 13,-43z"/>
  <ellipse class="fil1" transform="matrix(0.391687 -1.35348 1.35348 0.391687 14916.1 7193.16)" rx="56" ry="112"/>
  <ellipse class="fil2" transform="matrix(0.0727601 -1.40714 1.40714 0.0727601 14985.8 7251.75)" rx="10" ry="22"/>
  <g>
   <path class="fil1" d="M14181 5642c-310,-8 -751,204 -751,204l-56 -126c0,0 487,-235 657,-421l150 343zm0 0l0 0 0 0z"/>
  </g>
  <path class="fil3" d="M13412 5700l0 0c21,42 34,88 36,135 2,46 -20,9 -20,9l-55 -126 39 -18z"/>
  <ellipse class="fil1" transform="matrix(1.28221 -0.563608 0.563608 1.28221 13248.2 5798.29)" rx="56" ry="112"/>
  <ellipse class="fil2" transform="matrix(1.12559 -0.847577 0.847577 1.12559 13339.2 5900.56)" rx="10" ry="22"/>
  <g>
   <path class="fil1" d="M14129 4079c-165,-262 -583,-513 -583,-513l75 -116c0,0 466,277 713,314l-205 315zm0 0l0 0 0 0z"/>
  </g>
  <path class="fil3" d="M13655 3472l0 0c-23,41 -54,77 -92,104l-17 -10 75 -116 34 22z"/>
  <ellipse class="fil1" transform="matrix(0.758725 -1.1873 1.1873 0.758725 13524.7 3470.99)" rx="112" ry="56"/>
  <ellipse class="fil2" transform="matrix(0.468022 -1.32902 1.32902 0.468022 13447.7 3521.01)" rx="22" ry="10"/>
  <g>
   <path class="fil1" d="M14520 3635c-54,-233 -298,-522 -298,-522l84 -67c0,0 270,321 441,410l-227 179zm0 0l0 0 0 0z"/>
  </g>
  <path class="fil3" d="M14325 3072l0 0c-27,24 -59,42 -93,53 -34,11 -11,-13 -11,-13l84 -66 20 26z"/>
  <ellipse class="fil1" transform="matrix(1.10577 -0.873282 0.873282 1.10577 14230.4 3037.89)" rx="87" ry="43"/>
  <ellipse class="fil2" transform="matrix(0.877521 -1.10241 1.10241 0.877521 14162.3 3054.91)" rx="16" ry="7"/>
  <g>
   <path class="fil1" d="M14033 5118c-226,-77 -600,-23 -600,-23l-12 -106c0,0 414,-61 581,-158l31 287zm0 0l0 0 0 0z"/>
  </g>
  <path class="fil3" d="M13454 4983l0 0c3,14 4,29 4,43 0,22 -3,43 -8,65l-17 0 -11 -106 32 -2z"/>
  <ellipse class="fil1" transform="matrix(1.40029 -0.156573 0.156573 1.40029 13376.1 5045.08)" rx="43" ry="87"/>
  <ellipse class="fil2" transform="matrix(1.32779 -0.4715 0.4715 1.32779 13353.6 5114.44)" rx="7" ry="16"/>
  <g>
   <path class="fil1" d="M14854 6230c-203,127 -396,452 -396,452l-90 -61c0,0 215,-360 243,-548l243 157zm0 0l0 0 0 0z"/>
  </g>
  <path class="fil3" d="M14385 6595l0 0c31,18 59,42 80,71l-8 15 -91 -61 19 -25z"/>
  <ellipse class="fil1" transform="matrix(0.761417 -1.18557 1.18557 0.761417 14383.8 6696.66)" rx="43" ry="87"/>
  <ellipse class="fil2" transform="matrix(0.471036 -1.32796 1.32796 0.471036 14422.9 6754.93)" rx="7" ry="16"/>
  <g>
   <path class="fil1" d="M16024 6351c-43,187 31,482 31,482l-84 18c0,0 -82,-327 -175,-452l228 -48zm0 0l0 0 0 0z"/>
  </g>
  <path class="fil3" d="M15964 6825l0 0c18,-5 36,-7 54,-7 11,0 22,0 33,2l0 13 -84 18 -3 -26z"/>
  <ellipse class="fil1" transform="matrix(1.37673 -0.299924 0.299924 1.37673 16020.2 6884.89)" rx="70" ry="35"/>
  <ellipse class="fil2" transform="matrix(1.27208 -0.605933 0.605933 1.27208 16075.6 6895.28)" rx="13" ry="6"/>
  <g>
   <path class="fil1" d="M15763 6413c-99,217 -82,595 -82,595l-106 0c0,0 -19,-419 -101,-594l289 -1zm0 0l0 0 0 0z"/>
  </g>
  <path class="fil3" d="M15573 6976l0 0c0,3 0,6 0,8 0,3 0,6 0,8l-107 0c0,0 108,-1 107,-16z"/>
  <ellipse class="fil1" transform="matrix(1.40888 -0.0199189 0.0199189 1.40888 15628.4 7060.12)" rx="87" ry="43"/>
  <ellipse class="fil2" transform="matrix(1.36723 -0.340634 0.340634 1.36723 15692.9 7086.53)" rx="16" ry="7"/>
  <g>
   <path class="fil1" d="M13994 4488c-154,-114 -453,-163 -453,-163l17 -84c0,0 331,56 481,21l-45 226zm0 0l0 0 0 0z"/>
  </g>
  <path class="fil3" d="M13585 4245l0 0c-4,29 -14,57 -30,81l-13 0 17 -84 26 3z"/>
  <ellipse class="fil1" transform="matrix(0.275369 -1.38185 1.38185 0.275369 13508.9 4274.17)" rx="69" ry="35"/>
  <ellipse class="fil2" transform="matrix(1.40824 -0.0469621 0.0469621 1.40824 13477.4 4319.82)" rx="6" ry="13"/>
  <g>
   <path class="fil1" d="M14535 5976c-196,61 -426,292 -426,292l-61 -67c0,0 256,-254 320,-408l167 183zm0 0l0 0 0 0z"/>
  </g>
  <path class="fil3" d="M14067 6182l0 0c22,22 39,48 51,77l-10 9 -61 -66 20 -20z"/>
  <ellipse class="fil1" transform="matrix(1.02898 -0.962568 0.962568 1.02898 14044.8 6264.65)" rx="37" ry="74"/>
  <ellipse class="fil2" transform="matrix(0.782401 -1.17183 1.17183 0.782401 14064.2 6321.17)" rx="6" ry="14"/>
  <circle class="fil0" cx="18616" cy="11739" r="1654"/>
  <circle class="fil1" cx="19077" cy="10720" r="156"/>
  <circle class="fil2" cx="17661" cy="10818" r="156"/>
  <circle class="fil2" cx="18221" cy="10720" r="117"/>
  <circle class="fil1" cx="18435" cy="11563" r="262"/>
  <circle class="fil2" cx="17555" cy="12084" r="262"/>
  <circle class="fil1" cx="18770" cy="12496" r="262"/>
  <circle class="fil3" cx="19606" cy="12340" r="156"/>
  <circle class="fil3" cx="17974" cy="12837" r="117"/>
  <circle class="fil3" cx="17601" cy="11509" r="117"/>
  <circle class="fil3" cx="19449" cy="11394" r="156"/>
  <g>
   <path class="fil0" d="M18435 10095c132,-279 116,-769 116,-769l138 0c0,0 17,542 122,771l-376 -2zm0 0l0 0 0 0z"/>
  </g>
  <path class="fil1" d="M18691 9369l0 0c-6,0 -13,1 -19,1 -41,0 -81,-8 -118,-23l0 -21 138 0c0,0 -2,24 -1,43z"/>
  <ellipse class="fil0" cx="18622" cy="9259" rx="158" ry="79"/>
  <ellipse class="fil2" transform="matrix(1.37191 -0.321272 0.321272 1.37191 18539 9221.09)" rx="22" ry="10"/>
  <g>
   <path class="fil0" d="M19003 10161c168,-168 284,-526 284,-526l100 36c0,0 -129,396 -114,588l-270 -98zm0 0l0 0 0 0z"/>
  </g>
  <path class="fil1" d="M19377 9703l0 0c-34,-10 -66,-28 -93,-52l5 -16 100 37 -12 31z"/>
  <ellipse class="fil0" transform="matrix(0.47752 -1.32564 1.32564 0.47752 19355.6 9604.05)" rx="43" ry="86"/>
  <ellipse class="fil2" transform="matrix(0.162682 -1.3996 1.3996 0.162682 19303.9 9555.28)" rx="7" ry="16"/>
  <g>
   <path class="fil0" d="M19359 10316c175,-107 344,-384 344,-384l76 50c0,0 -187,304 -213,471l-207 -137zm0 0l0 0 0 0z"/>
  </g>
  <path class="fil1" d="M19764 10007l0 0c-26,-15 -50,-36 -68,-61l8 -12 76 50 -16 23z"/>
  <ellipse class="fil0" transform="matrix(0.772557 -1.17834 1.17834 0.772557 19766.8 9921.92)" rx="37" ry="74"/>
  <ellipse class="fil2" transform="matrix(0.483531 -1.32346 1.32346 0.483531 19733.7 9870.27)" rx="6" ry="14"/>
  <g>
   <path class="fil0" d="M17954 10277c24,-201 -88,-505 -88,-505l86 -30c0,0 126,337 239,459l-237 76zm0 0l0 0 0 0z"/>
  </g>
  <path class="fil1" d="M17961 9767l0 0c-25,10 -53,15 -80,15 -4,0 -7,0 -11,0l-4 -10 86 -30 9 25z"/>
  <ellipse class="fil0" transform="matrix(1.33495 -0.450819 0.450819 1.33495 17895.1 9712.38)" rx="74" ry="37"/>
  <ellipse class="fil2" transform="matrix(1.197 -0.743328 0.743328 1.197 17834.5 9705.5)" rx="14" ry="6"/>
  <g>
   <path class="fil0" d="M20186 11400c194,66 515,19 515,19l10 91c0,0 -355,52 -498,137l-27 -247zm0 0l0 0 0 0z"/>
  </g>
  <path class="fil1" d="M20682 11515l0 0c-2,-12 -3,-25 -3,-37 0,-19 3,-37 7,-55l15 0 10 91 -29 1z"/>
  <ellipse class="fil0" transform="matrix(1.39999 -0.159261 0.159261 1.39999 20749.3 11461.6)" rx="37" ry="74"/>
  <ellipse class="fil2" transform="matrix(1.3268 -0.47428 0.47428 1.3268 20767.9 11403.6)" rx="6" ry="14"/>
  <g>
   <path class="fil0" d="M20222 11743c175,106 499,128 499,128l-9 92c0,0 -359,-26 -516,26l26 -246zm0 0l0 0 0 0z"/>
  </g>
  <path class="fil1" d="M20683 11962l0 0c1,-31 9,-62 23,-89l15 0 -9 91 -29 -2z"/>
  <ellipse class="fil0" transform="matrix(0.143124 -1.40173 1.40173 0.143124 20759.6 11922.3)" rx="74" ry="37"/>
  <ellipse class="fil2" transform="matrix(1.39744 -0.180256 0.180256 1.39744 20790.8 11869.1)" rx="6" ry="14"/>
  <g>
   <path class="fil0" d="M20078 12405c116,168 401,322 401,322l-46 79c0,0 -316,-170 -481,-188l126 -213zm0 0l0 0 0 0z"/>
  </g>
  <path class="fil1" d="M20408 12793l0 0c14,-28 34,-52 58,-72l13 8 -47 78 -24 -14z"/>
  <ellipse class="fil0" transform="matrix(0.708128 -1.21815 1.21815 0.708128 20493.8 12788.8)" rx="74" ry="37"/>
  <ellipse class="fil2" transform="matrix(0.411723 -1.34753 1.34753 0.411723 20542 12752.5)" rx="14" ry="6"/>
  <g>
   <path class="fil0" d="M20073 11019c237,21 586,-122 586,-122l36 100c0,0 -386,156 -523,291l-99 -269zm0 0l0 0 0 0z"/>
  </g>
  <path class="fil1" d="M20665 11010l0 0c-14,-32 -22,-66 -22,-101 0,-1 1,-2 1,-3l15 -6 37 99 -31 11z"/>
  <ellipse class="fil0" transform="matrix(1.32176 -0.488148 0.488148 1.32176 20726 10930)" rx="43" ry="86"/>
  <ellipse class="fil2" transform="matrix(1.17564 -0.776665 0.776665 1.17564 20729.9 10859.4)" rx="7" ry="16"/>
  <g>
   <path class="fil0" d="M20202 12095c171,165 531,275 531,275l-34 100c0,0 -399,-122 -590,-103l93 -272zm0 0l0 0 0 0z"/>
  </g>
  <path class="fil1" d="M20665 12460l0 0c9,-34 26,-67 49,-95l16 6 -34 100 -31 -11z"/>
  <ellipse class="fil0" transform="matrix(0.450887 -1.33857 1.33857 0.450887 20800.7 12376.4)" rx="86" ry="43"/>
  <ellipse class="fil2" transform="matrix(0.140902 -1.40902 1.40902 0.140902 20960.6 12363.9)" rx="16" ry="7"/>
  <g>
   <path class="fil0" d="M19574 13052c20,238 219,556 219,556l-92 54c0,0 -220,-354 -376,-467l249 -143zm0 0l0 0 0 0z"/>
  </g>
  <path class="fil1" d="M19683 13634l0 0c30,-20 65,-33 100,-38l9 14 -92 53 -17 -29z"/>
  <ellipse class="fil0" transform="matrix(1.21951 -0.705788 0.705788 1.21951 19771.3 13680.2)" rx="86" ry="43"/>
  <ellipse class="fil2" transform="matrix(1.02646 -0.965258 0.965258 1.02646 19841.7 13672.3)" rx="16" ry="7"/>
  <g>
   <path class="fil0" d="M19727 10513c297,-86 653,-422 653,-422l91 102c0,0 -395,373 -497,601l-247 -281zm0 0l0 0 0 0z"/>
  </g>
  <path class="fil1" d="M20440 10224l0 0c-33,-33 -58,-73 -75,-117l16 -15 92 103 -33 29z"/>
  <ellipse class="fil0" transform="matrix(1.05464 -0.934382 0.934382 1.05464 20477 10097.3)" rx="56" ry="112"/>
  <ellipse class="fil2" transform="matrix(0.813812 -1.15024 1.15024 0.813812 20448.5 10009.9)" rx="10" ry="22"/>
  <g>
   <path class="fil0" d="M20000 12646c131,280 519,580 519,580l-88 106c0,0 -429,-332 -669,-398l238 -288zm0 0l0 0 0 0z"/>
  </g>
  <path class="fil1" d="M20396 13307l0 0c28,-38 64,-70 105,-93l17 14 -88 106 -34 -27z"/>
  <ellipse class="fil0" transform="matrix(0.897006 -1.08661 1.08661 0.897006 20525.4 13321.2)" rx="112" ry="56"/>
  <ellipse class="fil2" transform="matrix(0.625839 -1.2624 1.2624 0.625839 20607.7 13283.8)" rx="22" ry="10"/>
  <g>
   <path class="fil1" d="M18333 13369c-205,232 -325,707 -325,707l-133 -39c0,0 135,-525 99,-773l359 105zm0 0l0 0 0 0z"/>
  </g>
  <path class="fil3" d="M17886 13995l0 0c45,11 88,32 125,61 38,29 -5,21 -5,21l-133 -38c0,0 8,-25 13,-44z"/>
  <ellipse class="fil1" transform="matrix(0.391687 -1.35348 1.35348 0.391687 17920.4 14120.4)" rx="56" ry="112"/>
  <ellipse class="fil2" transform="matrix(0.0727601 -1.40714 1.40714 0.0727601 17990.1 14178.9)" rx="10" ry="22"/>
  <g>
   <path class="fil1" d="M17185 12570c-309,-8 -751,204 -751,204l-56 -126c0,0 487,-235 658,-421l149 343zm0 0l0 0 0 0z"/>
  </g>
  <path class="fil3" d="M16417 12628l0 0c22,41 34,87 36,134l-19 9 -56 -126 39 -17z"/>
  <ellipse class="fil1" transform="matrix(1.2891 -0.568829 0.568829 1.2891 16344.9 12733.6)" rx="56" ry="112"/>
  <ellipse class="fil2" transform="matrix(1.12559 -0.847577 0.847577 1.12559 16343.1 12828.3)" rx="10" ry="22"/>
  <g>
   <path class="fil1" d="M17136 11007c-165,-262 -586,-513 -586,-513l74 -116c0,0 466,278 715,314l-203 315zm0 0l0 0 0 0z"/>
  </g>
  <path class="fil3" d="M16660 10400l0 0c-23,40 -55,76 -93,104l-18 -11 74 -117c0,0 20,14 37,24z"/>
  <ellipse class="fil1" transform="matrix(0.760871 -1.18358 1.18358 0.760871 16511.3 10458.3)" rx="112" ry="56"/>
  <ellipse class="fil2" transform="matrix(0.468022 -1.32902 1.32902 0.468022 16451.9 10447.4)" rx="22" ry="10"/>
  <g>
   <path class="fil1" d="M17522 10563c-54,-233 -297,-522 -297,-522l83 -66c0,0 270,321 441,409l-227 179zm0 0l0 0 0 0z"/>
  </g>
  <path class="fil3" d="M17330 9999l0 0c-27,24 -59,42 -94,53l-10 -14 83 -66 21 27z"/>
  <ellipse class="fil1" transform="matrix(1.10577 -0.873282 0.873282 1.10577 17235.4 9965.91)" rx="87" ry="43"/>
  <ellipse class="fil2" transform="matrix(0.877521 -1.10241 1.10241 0.877521 17167 9982.7)" rx="16" ry="7"/>
  <g>
   <path class="fil1" d="M17038 12045c-226,-78 -600,-23 -600,-23l-12 -106c0,0 414,-61 581,-158l31 287zm0 0l0 0 0 0z"/>
  </g>
  <path class="fil3" d="M16459 11911l0 0c2,14 4,29 4,44 0,21 -3,43 -8,64l-17 0 -12 -106 33 -2z"/>
  <ellipse class="fil1" transform="matrix(1.40029 -0.156573 0.156573 1.40029 16381.5 11972.3)" rx="43" ry="87"/>
  <ellipse class="fil2" transform="matrix(1.32779 -0.4715 0.4715 1.32779 16358.2 12041.8)" rx="7" ry="16"/>
  <g>
   <path class="fil1" d="M17859 13158c-203,126 -397,450 -397,450l-89 -57c0,0 215,-359 243,-550l243 157zm0 0l0 0 0 0z"/>
  </g>
  <path class="fil3" d="M17389 13522l0 0c31,18 59,42 80,71l-9 14 -89 -57 18 -28z"/>
  <ellipse class="fil1" transform="matrix(0.761417 -1.18557 1.18557 0.761417 17388.5 13623.8)" rx="43" ry="87"/>
  <ellipse class="fil2" transform="matrix(0.471036 -1.32796 1.32796 0.471036 17427.1 13682.4)" rx="7" ry="16"/>
  <g>
   <path class="fil1" d="M19028 13277c-43,188 31,483 31,483l-84 19c0,0 -81,-328 -174,-452l227 -50zm0 0l0 0 0 0z"/>
  </g>
  <path class="fil3" d="M18969 13753l0 0c18,-6 37,-8 55,-8 11,0 21,1 31,2l3 13 -84 19 -5 -26z"/>
  <ellipse class="fil1" transform="matrix(1.37673 -0.299924 0.299924 1.37673 19024 13811.7)" rx="70" ry="35"/>
  <ellipse class="fil2" transform="matrix(1.27208 -0.605933 0.605933 1.27208 19080.8 13823)" rx="13" ry="6"/>
  <g>
   <path class="fil1" d="M18768 13340c-99,217 -82,595 -82,595l-106 0c0,0 -20,-418 -101,-593l289 -2zm0 0l0 0 0 0z"/>
  </g>
  <path class="fil3" d="M18577 13903l0 0c7,0 13,0 20,0 30,0 59,5 87,16l0 16 -107 0c0,0 2,-17 0,-32z"/>
  <ellipse class="fil1" transform="matrix(1.40888 -0.0199189 0.0199189 1.40888 18633.1 13986.4)" rx="87" ry="43"/>
  <ellipse class="fil2" transform="matrix(1.36723 -0.340634 0.340634 1.36723 18698.5 14013.5)" rx="16" ry="7"/>
  <g>
   <path class="fil1" d="M16998 11414c-153,-113 -452,-163 -452,-163l17 -84c0,0 330,56 481,21l-46 226zm0 0l0 0 0 0z"/>
  </g>
  <path class="fil3" d="M16588 11171l0 0c-4,29 -14,56 -29,80l-14 0 17 -83 26 3z"/>
  <ellipse class="fil1" transform="matrix(0.275369 -1.38185 1.38185 0.275369 16513.7 11200.6)" rx="69" ry="35"/>
  <ellipse class="fil2" transform="matrix(1.40824 -0.0469621 0.0469621 1.40824 16482.2 11246.1)" rx="6" ry="13"/>
  <g>
   <path class="fil1" d="M17539 12903c-195,60 -426,292 -426,292l-60 -67c0,0 255,-254 318,-407l168 182zm0 0l0 0 0 0z"/>
  </g>
  <path class="fil3" d="M17071 13108l0 0c23,21 41,47 52,76l-10 10 -61 -67 19 -19z"/>
  <ellipse class="fil1" transform="matrix(1.02898 -0.962568 0.962568 1.02898 17048.8 13192.4)" rx="37" ry="74"/>
  <ellipse class="fil2" transform="matrix(0.782401 -1.17183 1.17183 0.782401 17069.3 13249)" rx="6" ry="14"/>
  <path class="fil4" d="M13649 18765c0,-342 -1405,-619 -3137,-619 -1733,0 -3137,277 -3137,619 0,341 1404,618 3137,618 1732,0 3137,-277 3137,-618z"/>
  <path class="fil4" d="M20271 16122c0,-197 -742,-357 -1657,-357 -914,0 -1656,160 -1656,357 0,198 742,357 1656,357 915,0 1657,-159 1657,-357z"/>
  <path class="fil4" d="M17284 8580c0,-197 -742,-357 -1656,-357 -915,0 -1656,160 -1656,357 0,198 741,358 1656,358 914,0 1656,-160 1656,-358z"/>
 </g>
</svg>
