<?xml version="1.0" encoding="UTF-8"?>
<!DOCTYPE svg PUBLIC "-//W3C//DTD SVG 1.1//EN" "http://www.w3.org/Graphics/SVG/1.1/DTD/svg11.dtd">
<!-- Creator: CorelDRAW X7 -->
<svg xmlns="http://www.w3.org/2000/svg" xml:space="preserve" width="279.4mm" height="215.9mm" version="1.1" style="shape-rendering:geometricPrecision; text-rendering:geometricPrecision; image-rendering:optimizeQuality; fill-rule:evenodd; clip-rule:evenodd"
viewBox="0 0 27940 21590"
 xmlns:xlink="http://www.w3.org/1999/xlink"
 data-name="Layer 1">
 <defs>
  <style type="text/css">
   <![CDATA[
    .str0 {stroke:#2F80ED;stroke-width:52.92;stroke-opacity:0.800000}
    .str1 {stroke:#2F80ED;stroke-width:7.62}
    .fil1 {fill:none}
    .fil2 {fill:#2F80ED}
    .fil0 {fill:#56CCF2}
   ]]>
  </style>
 </defs>
 <g id="Layer_x0020_1">
  <metadata id="CorelCorpID_0Corel-Layer"/>
  <g id="_2724357961936">
   <path class="fil0" d="M7285 4201c-8,-2 -16,-3 -25,-3 -8,0 -15,1 -23,2l-247 38c-21,1 -40,9 -56,22 -32,34 -1,88 -2,135 -1,53 -48,95 -98,109 -24,5 -49,8 -74,8 -27,0 -55,-3 -82,-10l-346 -53c102,-33 192,-93 261,-175 46,-54 70,-154 4,-180 -13,-3 -28,-5 -42,-5 -6,0 -12,0 -18,1 -156,1 -279,-130 -426,-185 -50,-18 -103,-27 -156,-27 -147,0 -285,69 -374,185l184 9c1,0 3,0 4,0 16,0 32,5 45,13 40,33 -10,97 -4,149 7,67 97,82 164,88 68,7 153,62 121,122 -339,116 -685,-229 -1041,-186 -90,11 -175,46 -263,68 -538,136 -1093,-227 -1643,-150 -122,21 -242,53 -358,95 -75,24 -153,51 -207,108 -55,57 -75,154 -24,214 75,41 122,120 122,206 0,1 0,1 0,2 -265,-92 -543,-139 -822,-139 -115,0 -231,8 -344,24 37,63 82,122 132,176l-280 180c95,24 143,153 88,234 99,-44 159,-157 264,-180 69,-15 139,14 205,40 65,26 137,52 204,32 68,-20 118,-107 75,-163 4,-1 9,-1 13,-1 19,0 37,5 54,14 39,27 29,86 27,133 -3,48 35,110 77,89 -50,43 -7,125 41,171 48,45 106,108 76,168 -7,15 -20,27 -28,43 -22,46 13,100 54,131 41,30 91,52 119,94 28,43 16,117 -35,123l-144 -183c-49,51 -83,115 -98,184 153,125 176,379 48,530 -65,77 -158,123 -239,183 -81,60 -156,145 -156,246 0,174 -14,336 51,498 120,298 260,588 417,868 41,73 94,154 178,167 -106,-257 -201,-517 -286,-782 55,0 119,5 151,49 27,37 21,87 29,132 11,43 29,85 52,122l1392 758c41,75 89,154 169,184 51,20 110,16 157,44 37,21 61,60 99,80 106,58 253,-53 353,16 28,20 46,52 72,74 91,79 242,26 347,85 68,39 104,115 140,184 91,173 238,342 433,356 61,4 124,-7 184,6 60,14 118,66 109,127 -17,104 35,218 21,322 -25,190 -295,274 -318,464 -5,42 3,85 -7,125 -12,50 -50,91 -63,141 -25,94 42,188 116,251 74,63 163,118 203,207 43,93 22,203 36,305 30,223 223,388 421,494 60,33 125,64 164,121 51,73 46,170 63,258 42,215 223,392 228,611 4,156 -83,297 -134,444 -38,108 -57,222 -57,337 0,183 49,363 141,521 39,66 85,127 112,198 49,126 33,270 78,398 60,168 223,308 208,486 74,154 238,230 403,276l295 82c57,16 116,32 173,21 58,-12 113,-60 112,-118 -145,-33 -295,-68 -414,-156 -120,-88 -201,-246 -156,-387 21,-66 66,-141 23,-195 -24,-32 -69,-40 -96,-68 -43,-44 -28,-118 2,-172 31,-53 76,-100 88,-161 55,-20 105,-52 146,-93 39,-44 57,-112 26,-162 90,11 196,17 255,-52 47,-55 44,-137 25,-206 -18,-70 -50,-138 -51,-210 -29,-101 -97,-186 -188,-237 93,-16 178,-127 207,-217 30,-90 22,-188 4,-281 -4,-14 -6,-28 -6,-43 0,-10 1,-21 3,-31 11,-33 44,-54 74,-71l464 -266c27,-14 52,-33 74,-55 48,-57 41,-143 16,-214 -25,-70 -65,-137 -74,-211 -29,-222 209,-381 289,-590 32,-83 38,-172 44,-259 7,-95 7,-204 -65,-265 -69,-58 -178,-45 -250,-99 -67,-49 -90,-146 -162,-186 -66,-36 -149,-13 -222,-30 -129,-30 -211,-179 -343,-193 -74,-8 -158,29 -219,-15 -54,-38 -56,-115 -66,-180 -37,-207 -199,-370 -406,-407 -77,-12 -161,-8 -226,-50 -66,-43 -96,-123 -148,-182 -84,-95 -216,-129 -339,-158l-503 -118c-89,-21 -204,-32 -251,46 -43,-72 -111,-125 -191,-147 -51,-14 -105,-16 -154,-37 23,-40 35,-86 35,-132 0,-72 -29,-141 -81,-192 -85,-77 -209,-95 -323,-87 -30,-66 20,-140 74,-187 54,-48 120,-95 131,-166 19,-111 -124,-196 -232,-163 -108,33 -177,139 -223,242 -26,60 -48,122 -90,172 -41,51 -108,86 -171,70 -89,-22 -123,-128 -143,-218 -26,-121 -53,-243 -47,-366 5,-123 47,-250 138,-334 148,-136 375,-122 575,-101 -47,-53 -36,-142 15,-193 60,13 115,45 154,93 57,69 73,162 116,241 43,79 140,146 219,104 68,-37 79,-132 62,-207 -17,-76 -53,-149 -47,-226 11,-147 164,-236 299,-297 134,-60 633,-387 654,-533 15,-24 36,-44 61,-57 393,-260 792,-523 1241,-665 24,-7 26,1 50,-5 34,-19 11,-72 -21,-94 -31,-21 -74,-38 -82,-75 -6,-28 10,-55 14,-83 11,-69 -72,-132 -135,-105 -37,-48 35,-103 93,-119 5,-1 10,-1 15,-1 15,0 31,4 45,11 30,21 26,69 5,99 -21,30 -55,48 -81,74 -43,41 -67,99 -67,159 0,21 3,43 9,64 94,47 196,96 300,80 103,-17 195,-134 147,-227 -46,-87 -182,-106 -206,-201 -27,-112 130,-211 95,-320 -16,-47 -63,-75 -100,-110 -21,4 -43,6 -65,6 -100,0 -195,-39 -266,-109 -79,-80 -142,-207 -255,-203 -103,3 -192,124 -289,87 -23,-9 -48,-27 -71,-17 -16,10 -26,27 -27,45 -25,117 18,251 -46,352 -70,110 -231,126 -315,225 -46,54 -64,127 -106,184 -42,57 -131,93 -182,43 53,-149 183,-258 340,-281 67,-9 145,-6 190,-57 24,-28 36,-68 70,-80 7,-1 14,-2 20,-2 16,0 31,4 45,10l251 89c30,-4 52,-30 52,-60 0,-2 0,-3 0,-4 -8,-42 -72,-62 -66,-104 169,-180 406,-282 654,-282 19,0 38,0 57,1 32,52 -18,114 -60,158 -41,45 -75,124 -25,158 62,9 122,27 178,54 87,38 172,79 255,124 -7,-55 -14,-113 7,-164 21,-52 80,-92 132,-72 50,19 75,85 128,91 71,9 99,-96 69,-161 -29,-65 -88,-119 -93,-190 -3,-48 15,-108 -23,-137 -14,-9 -29,-14 -45,-16l-958 -176c-56,-10 -138,-2 -141,55 -1,33 27,64 15,94 -14,32 -59,29 -91,40 -51,17 -76,77 -71,131 9,52 29,103 60,147 152,-1176 58,-1181 -5,-1207z"/>
   <g>
    <path class="fil0" d="M6521 3388c-31,-10 -64,-15 -97,-15 -95,0 -184,43 -243,117 -16,21 -29,50 -16,72 19,32 67,20 103,8 28,-10 57,-15 87,-15 25,0 51,4 75,11 33,12 63,32 97,43 12,5 24,8 37,8 23,0 45,-8 62,-23 23,-23 24,-59 25,-92 -35,-7 -67,-25 -89,-52l-41 -62zm0 0l0 0 0 0z"/>
   </g>
   <path class="fil0" d="M8025 3132c-2,9 -3,18 -3,27 0,12 1,23 4,34 12,29 47,40 78,47 8,-23 18,-47 29,-69 73,-111 291,23 369,-84 28,-38 26,-96 62,-126 158,-31 319,-54 479,-68 76,-6 175,-34 176,-110 -84,-17 -170,-25 -256,-25 -205,0 -407,47 -590,138 -95,48 -219,147 -310,84 -34,-23 -33,-86 -79,-113 155,243 92,254 41,265z"/>
   <path class="fil0" d="M8963 3307l134 26c-2,0 -5,0 -7,0 -97,0 -175,78 -175,174 0,5 0,10 1,15 126,42 263,1 396,7 133,5 288,100 265,231 -7,40 -30,80 -18,118 8,27 32,46 46,71 28,51 5,117 -30,164 -35,47 -83,84 -114,134 -77,124 -33,284 13,423 13,52 38,101 72,143 68,73 178,79 277,80 73,1 155,-2 201,-58 59,-73 18,-187 57,-273 36,-77 126,-111 209,-134 150,-44 304,-81 446,-146 177,-81 342,-208 536,-219 55,-3 111,4 163,-11 53,-15 103,-60 99,-115 -4,-46 -43,-81 -74,-116 -31,-35 -55,-89 -26,-126l509 -95c-36,-98 -64,-228 19,-292 30,-23 70,-32 95,-60 44,-48 22,-130 -28,-170 -51,-41 -118,-50 -183,-56 -223,-18 -448,-6 -671,6 -438,24 -875,48 -1313,72 -88,5 -189,-2 -270,28 -69,25 -117,72 -195,88 -145,31 -304,10 -434,91z"/>
   <path class="fil0" d="M11375 4371c26,39 70,62 116,62 4,0 8,0 12,0 61,-8 105,-60 161,-85 86,-39 451,-99 198,-236 -86,-47 -143,-5 -211,26 -58,110 -157,194 -276,233l0 0z"/>
   <path class="fil0" d="M13586 3230c10,4 20,6 31,6 1,0 2,0 3,0l120 3c51,2 114,13 128,62 10,36 -13,83 15,109 22,6 46,9 69,9 17,0 34,-2 51,-5 88,-24 42,-77 69,-124 42,-73 35,-29 109,-70 55,-31 125,-87 80,-165 -86,23 -558,117 -675,175z"/>
   <path class="fil0" d="M15951 3162l-70 9c-157,21 -315,42 -466,89 39,2 77,8 114,17 67,19 134,71 199,44 40,-16 53,-58 86,-80 23,-15 110,-39 119,-55 283,-74 78,-32 18,-24z"/>
   <path class="fil0" d="M16256 3478c-93,52 -179,115 -257,188 -32,31 -66,69 -63,114 4,59 68,94 122,117l223 94c27,-38 2,-90 -26,-128 -28,-37 -61,-80 -48,-125 14,-52 76,-69 129,-78 85,-14 316,-13 288,-151 -33,-162 -282,-79 -368,-31z"/>
   <path class="fil0" d="M16211 12666c-21,61 -23,134 14,187 41,60 123,83 194,67 37,-90 63,-185 77,-281l69 -363c16,-81 15,-329 -134,-248 -40,22 -135,196 -177,246 -77,89 -87,176 -128,284 234,-140 132,-28 85,108z"/>
   <g>
    <path class="fil0" d="M24078 14522c-46,125 -70,257 -72,391l334 -189c50,-28 107,-68 106,-125 -6,-3 -11,-4 -17,-4 -2,0 -4,0 -7,1 -49,4 -94,28 -141,45 -46,17 -101,26 -144,1l-59 -120zm0 0l0 0 0 0z"/>
   </g>
   <path class="fil0" d="M25837 14634c-36,10 -72,23 -107,38 -76,39 -128,113 -197,164 -66,49 -145,76 -223,102 -23,21 -13,61 12,79 24,14 50,21 77,21 4,0 8,-1 11,-1 81,2 167,3 237,-36 40,-26 78,-56 112,-89 83,-69 182,-115 281,-159 36,-13 69,-33 98,-58 62,-61 66,-155 -23,-176 -72,-17 -209,92 -278,115z"/>
   <g>
    <path class="fil0" d="M26615 14126c1,-9 1,-18 1,-27 0,-76 -31,-149 -86,-201 -1,84 -4,173 -51,243 -34,49 -86,83 -123,130 -37,47 -54,122 -10,163 27,21 61,33 96,33 86,10 185,16 246,-46 33,-34 49,-85 89,-110 15,-6 28,-15 39,-28 17,-26 -10,-61 -39,-70 -30,-10 -63,-5 -93,-14 -29,-9 -57,-43 -42,-70l-27 -3zm0 0l0 0 0 0z"/>
   </g>
   <path class="fil0" d="M25233 11048c-30,7 -60,11 -91,11 -16,0 -31,-1 -47,-3 -77,-14 -136,-72 -198,-119 -147,-112 -326,-175 -511,-179 -168,-3 -337,43 -502,11 10,60 62,105 116,132 55,26 116,40 171,66 88,42 158,115 197,205 17,41 29,86 55,122 55,74 159,91 251,84 120,-7 245,-42 356,3 85,34 146,108 217,166 72,58 172,101 253,60 -172,-56 -289,-217 -289,-398 0,-2 0,-3 0,-5 80,8 311,5 298,-131 -10,-116 -207,-38 -276,-25z"/>
   <path class="fil0" d="M24185 11986c14,-78 92,-147 68,-222 -17,-52 -77,-78 -132,-79 -55,-2 -109,15 -164,16 -14,0 -28,-1 -42,-1 -21,0 -43,1 -65,3 -108,18 -175,132 -278,172 -62,25 -132,20 -197,37 -147,39 -241,178 -344,290 -166,180 -383,307 -621,363 -84,19 -174,32 -240,86 -89,72 -110,195 -130,307 -54,309 -137,614 -247,908l350 44c66,9 135,17 199,-3 155,-96 330,-159 511,-184 92,-13 188,-15 274,19 86,34 159,111 166,203 55,56 91,128 103,205 9,48 18,105 63,125 36,17 77,-1 117,-4 134,-11 246,146 378,119 142,-29 176,-241 315,-284 79,-24 190,5 228,-68 34,-66 -33,-141 -26,-214 8,-89 114,-127 196,-166 281,-132 415,-510 278,-789 -81,-166 -239,-296 -269,-478 -22,-140 33,-303 -56,-413 -46,-56 -123,-87 -149,-153 -17,-42 -11,-90 -20,-135 -9,-44 -48,-90 -92,-79 -127,33 -168,427 -236,522 242,128 30,32 62,-147z"/>
   <path class="fil0" d="M21832 11196c-44,-12 -91,-24 -133,-6 -42,17 -66,78 -33,109 262,-10 525,-21 785,15 299,41 595,142 895,113 -170,-50 -346,-92 -522,-122l-294 -56c-79,-16 -159,-29 -239,-37 -167,-14 -294,31 -459,-16z"/>
   <path class="fil0" d="M22094 10285c-22,-2 -49,-4 -60,15 -11,18 1,41 -4,61 -8,28 -44,35 -72,31 -29,-4 -59,-13 -84,1 37,47 79,89 125,126 90,66 212,98 269,195 8,19 20,35 36,48 27,17 63,4 92,-9l103 -47c18,-7 35,-18 48,-33 23,-32 9,-77 -11,-111 -20,-34 -45,-70 -41,-109 8,-70 98,-97 135,-157 37,-60 13,-138 17,-209 5,-83 57,-191 -26,-253 -72,-53 -140,-4 -191,54 -87,280 -138,413 -336,397z"/>
   <path class="fil0" d="M22717 9045c35,67 108,107 146,173 42,71 37,162 82,231 46,70 139,108 165,188 28,87 -36,194 15,270 21,-22 32,-52 32,-82 0,-34 -13,-65 -37,-88 -30,-28 -74,-40 -99,-72 4,-11 7,-22 7,-33 0,-6 -1,-12 -2,-18 -11,-33 -56,-35 -88,-51 -71,-35 -69,-135 -57,-214 -8,53 -194,-36 -213,-66 -39,-58 -18,-172 -26,-237 64,-202 32,-83 75,-1z"/>
   <path class="fil0" d="M20845 10078c-35,-38 -86,-79 -132,-55 -35,17 -45,66 -31,103 17,35 42,66 75,89 95,79 199,150 282,242 150,164 229,386 392,538 33,35 76,58 123,66 48,5 101,-26 106,-73 5,-39 -22,-74 -49,-103 -63,-68 -132,-132 -192,-203 -28,-28 -45,-64 -49,-103 0,-39 35,-79 72,-69 -45,-12 -79,-88 -146,-102 -56,-12 -69,22 -136,-6 -127,-55 -226,-225 -315,-324z"/>
   <path class="fil0" d="M23826 6339c-36,-11 -72,-24 -107,-38 -94,-28 -219,41 -206,138 8,65 69,109 102,165 49,83 36,189 10,283 -6,29 -18,56 -36,80 -23,25 -52,46 -84,61 -10,10 -17,23 -20,37 -4,33 29,57 47,85 42,61 12,143 16,217 0,1 0,2 0,3 0,20 10,39 26,50 25,13 55,-8 68,-33 45,-82 11,-213 96,-252 16,-8 35,-11 46,-25 17,-22 1,-55 9,-82 13,-40 68,-42 110,-40 27,-6 51,-20 70,-41 26,-31 24,-76 18,-116 -25,-200 -88,-394 -186,-570 74,10 155,18 219,-21 36,-21 79,-86 61,-130 -145,182 -196,241 -259,229z"/>
   <path class="fil0" d="M14302 7439c9,48 18,98 2,144 -15,46 -65,84 -111,70 -36,-11 -57,-47 -82,-75 -143,-153 -464,-64 -552,-254 -35,-78 -11,-171 -35,-253 -57,4 -113,14 -167,31 -122,44 -206,157 -265,273 -60,115 -103,241 -183,343 -84,108 -201,184 -310,265 -43,28 -78,64 -103,108 -24,48 -22,105 -20,159l22 658c3,84 6,172 44,248 48,94 141,156 206,239 63,83 97,183 97,287 0,5 0,9 0,13 -1,44 -5,95 28,123 20,13 44,20 68,20 0,0 1,0 2,0l889 72c157,13 330,34 432,154 48,56 87,137 161,143 32,2 62,-11 94,-13 80,-7 150,54 194,121 58,88 89,191 89,296 0,16 -1,33 -2,49 -7,76 -31,150 -36,227 -20,290 227,543 232,834 2,171 -79,331 -158,483 128,194 23,452 74,679 48,215 228,384 272,599 21,99 22,221 109,272 6,0 13,0 19,0 250,0 496,-58 720,-169 108,-53 219,-133 238,-252 15,-95 -33,-203 16,-286 58,-98 208,-91 293,-166 139,-123 31,-357 87,-534 51,-158 225,-243 312,-385 2,-102 10,-206 22,-307 94,-579 666,-966 852,-1522 18,-54 26,-124 -21,-154 -19,-9 -38,-14 -59,-14 -10,0 -21,2 -31,4l-410 52c-51,6 -105,12 -152,-9 -47,-21 -80,-80 -55,-125 69,-126 -74,-286 -138,-415 -15,-16 -24,-36 -26,-58l116 4c-39,-141 -104,-295 -241,-347 -77,-29 -163,-19 -245,-14 -1802,-1546 -2054,-1582 -2288,-1618z"/>
   <path class="fil0" d="M15024 4263c62,65 131,135 220,146 158,20 272,-143 344,-284 -1,-5 -1,-9 -1,-14 0,-51 35,-95 85,-107 72,-14 137,48 172,113 35,65 57,140 112,189 56,49 163,47 185,-24 21,-67 -49,-125 -108,-165 -58,-40 -120,-114 -81,-173 300,-66 601,-132 907,-145 4,0 8,0 13,0 47,0 95,-9 139,-27 47,-23 84,-75 71,-125 -26,6 -52,9 -79,9 -111,0 -216,-54 -281,-145 425,-35 876,-65 1253,135 45,97 -185,177 -124,265 20,28 59,31 94,32 261,5 524,9 783,-30 94,-15 190,-35 285,-23 158,19 293,125 448,159 64,14 135,15 188,-22 53,-37 76,-121 33,-169 146,-143 389,-108 582,-39 193,69 376,180 581,195 146,11 295,-29 440,-4 91,16 175,57 264,82 169,47 347,37 521,39 54,17 103,47 145,85 38,42 58,106 32,156l-428 -63c40,80 145,93 229,121 85,27 173,121 122,194 -92,-30 -175,62 -221,147 -47,84 -103,185 -199,190 -86,5 -191,-68 -247,-3 78,98 144,204 198,317 56,115 95,261 20,365 -11,18 -29,32 -50,39 -62,16 -101,-59 -145,-105 -56,-57 -139,-73 -214,-100 -75,-27 -154,-80 -160,-159 -4,-49 23,-95 42,-141 28,-66 42,-138 42,-210 0,-11 0,-22 -1,-33 -4,-67 -23,-137 -71,-184 -48,-47 -131,-62 -183,-19 -24,20 -43,52 -75,54 -55,2 -97,-95 -142,-62 1,7 2,15 2,22 0,28 -8,56 -22,79 -133,116 -337,67 -508,108 -27,11 -51,31 -67,55 -21,42 3,95 40,123 40,24 85,39 132,44 208,40 420,101 585,235 165,134 273,356 220,562l-411 -394c16,166 24,331 27,497 0,6 0,12 0,18 0,27 -4,53 -14,78 -29,64 -108,86 -178,100 -66,13 -114,71 -114,138 0,14 2,28 7,42 24,80 86,143 143,206 56,63 112,134 119,218 8,84 -56,179 -140,173 -64,-5 -111,-62 -139,-120 -27,-57 -43,-122 -84,-171 -124,-149 -402,-85 -513,-244 -40,46 -62,105 -62,166 0,25 3,49 10,73 52,-33 123,-3 161,44 39,47 58,107 88,160 41,71 106,134 112,216 0,12 -1,23 -1,35 0,19 1,39 3,58 10,50 52,86 81,127 68,97 64,229 21,339 -44,109 -122,201 -200,290 -136,155 -274,309 -435,438 -46,36 -95,73 -123,124 -29,51 -30,123 14,162 -32,2 -88,17 -120,19 -6,-80 -10,-161 -10,-242 0,-46 1,-92 3,-137 -124,-59 -257,100 -241,237 16,136 115,246 185,364 51,87 90,187 72,286 -17,100 -105,191 -205,182 -160,-14 -227,-242 -384,-269 -5,-1 -10,-2 -15,-2 -9,0 -18,2 -27,6 -23,13 -27,45 -29,71 -6,131 -12,267 39,388 75,177 268,325 228,513 -218,-102 -332,-347 -384,-582 -51,-235 -60,-482 -152,-705 -70,90 -218,16 -282,-78 -61,-90 -98,-193 -157,-284 -59,-91 -150,-172 -258,-177 -113,-5 -211,73 -298,146 -71,61 -144,123 -185,207 -61,121 -45,265 -48,400 -3,147 -34,302 -134,409 -100,107 -284,145 -395,48 -57,-50 -85,-126 -110,-198 644,-371 1332,-669 2043,-883 -18,82 -90,188 -160,139 -15,-13 -28,-29 -36,-47 -129,-219 -368,-349 -609,-428 -241,-78 -494,-115 -733,-201 -33,49 -51,108 -51,168 0,48 11,95 33,137 53,94 173,148 275,116 53,-17 98,-54 150,-72 53,-18 123,-10 146,41 22,48 -11,107 5,158 25,77 142,83 182,153 30,52 5,121 -38,163 -43,42 -100,65 -153,94 -171,95 -292,258 -442,384 -149,126 -360,218 -538,137 43,-215 -213,-372 -260,-586 -16,-70 -8,-145 -30,-214 -32,-99 -120,-167 -192,-243 -168,-177 -262,-412 -262,-656 0,-12 0,-25 0,-37 4,-89 20,-178 0,-264 -20,-87 -91,-170 -180,-166 -201,9 -456,24 -562,-148 -37,-62 -54,-152 1,-199 38,-33 95,-30 146,-25l455 45c106,10 221,19 312,-36 92,-56 131,-204 47,-269 -62,-48 -173,-45 -191,-121 -15,-64 55,-135 18,-188 -28,-38 -89,-28 -125,1 -37,28 -64,70 -106,91 -72,38 -159,2 -237,-22 -78,-25 -183,-27 -221,46 -42,81 38,187 -4,268 -56,108 -244,47 -322,139 -89,106 61,264 31,400 -65,-45 -104,-118 -104,-197 0,-8 0,-17 1,-25 7,-61 39,-123 18,-181 -17,-46 -64,-74 -107,-98l-442 -244c-41,76 10,170 75,227 65,58 146,101 189,176 -14,-9 -25,-22 -28,-38 -78,-200 -195,-397 -383,-501 -187,-104 -456,-83 -579,93 -29,42 -48,89 -74,133 -135,235 -424,345 -694,338 -3,0 -5,0 -8,0 -24,0 -47,-6 -68,-18 -44,-30 -42,-94 -35,-146l29 -224c5,-45 13,-94 49,-122 50,-40 122,-15 186,-16 6,-23 10,-47 10,-71 0,-73 -31,-143 -84,-193 -29,-28 -68,-62 -53,-99 12,-21 33,-35 57,-39 115,-33 236,-42 349,-81 112,-39 221,-119 248,-236 8,-35 12,-78 44,-96 122,-17 212,-122 212,-244 0,-5 0,-9 0,-13 54,-38 129,-10 181,30 53,40 99,93 162,110 119,32 233,-73 356,-73 51,0 105,18 153,1 50,-18 79,-67 117,-103 38,-37 104,-59 139,-20l-30 -220c35,9 70,14 106,14 88,0 174,-27 246,-77l-384 -130c-13,-3 -26,-10 -36,-19 -28,-30 0,-77 23,-111 54,-82 63,-217 -26,-257 -61,-28 -131,5 -189,38l-772 89c-9,53 57,83 97,119 27,35 42,79 42,123 0,16 -2,32 -6,48l-189 14c-5,1 -10,1 -16,1 -16,0 -31,-4 -45,-13 -20,-18 -17,-50 -22,-76 -11,-64 -74,-109 -138,-121 -64,-11 -129,4 -193,18 -15,-10 -27,-24 -33,-41 -27,-68 -1,-147 43,-205 45,-57 106,-99 161,-147 131,-115 228,-265 278,-432 104,-44 212,-103 315,-146 135,-69 284,-104 436,-104 27,0 55,1 82,3l352 7c104,2 211,4 307,44 96,40 181,126 187,229 -12,7 -26,11 -39,11 -2,0 -4,0 -5,-1 -308,349 -350,373 -447,377z"/>
   <g>
    <path class="fil0" d="M12223 5364c-21,21 -39,45 -53,71 -46,75 -87,165 -60,249 50,0 102,-3 152,-9 31,-4 67,-13 79,-41 16,-38 -23,-81 -11,-121 12,-11 19,-28 19,-45 0,-2 0,-4 0,-6 -5,-19 -33,-29 -43,-13l-83 -85zm0 0l0 0 0 0z"/>
   </g>
  </g>
  <g>
   <path class="fil1 str0" d="M24048 12990c0,0 -6691,-3841 -9572,-3113 0,0 -6106,657 -6813,2102 0,0 -1941,-6065 -2648,-6267"/>
   <path class="fil1 str0" d="M7663 11979c1122,-2992 11230,-6307 11230,-6307 -1435,363 -4417,4205 -4417,4205 0,0 -6308,-4590 -9461,-4165 0,0 13888,455 19033,7278"/>
   <circle class="fil2 str1" cx="5015" cy="5712" r="293"/>
   <circle class="fil2 str1" cx="7663" cy="11979" r="293"/>
   <circle class="fil2 str1" cx="18893" cy="5672" r="293"/>
   <circle class="fil2 str1" cx="24048" cy="12990" r="293"/>
   <circle class="fil2 str1" cx="14476" cy="9877" r="293"/>
  </g>
 </g>
</svg>
