<?xml version="1.0" encoding="UTF-8"?>
<!DOCTYPE svg PUBLIC "-//W3C//DTD SVG 1.1//EN" "http://www.w3.org/Graphics/SVG/1.1/DTD/svg11.dtd">
<!-- Creator: CorelDRAW X7 -->
<svg xmlns="http://www.w3.org/2000/svg" xml:space="preserve" width="215.9mm" height="279.4mm" version="1.1" style="shape-rendering:geometricPrecision; text-rendering:geometricPrecision; image-rendering:optimizeQuality; fill-rule:evenodd; clip-rule:evenodd"
viewBox="0 0 21590 27940"
 xmlns:xlink="http://www.w3.org/1999/xlink">
 <defs>
  <style type="text/css">
   <![CDATA[
    .str0 {stroke:#441A36;stroke-width:129.54;stroke-linecap:round;stroke-linejoin:round}
    .str1 {stroke:white;stroke-width:129.54;stroke-linecap:round;stroke-linejoin:round}
    .fil4 {fill:none}
    .fil6 {fill:#3388EE}
    .fil8 {fill:#A3ECFD}
    .fil5 {fill:#B7B6FB}
    .fil7 {fill:#DCF8FF}
    .fil0 {fill:#E4E8EC}
    .fil3 {fill:#F9C2AF}
    .fil2 {fill:#FCE7D6}
    .fil9 {fill:#FFDEC5}
    .fil1 {fill:white}
   ]]>
  </style>
 </defs>
 <g id="Layer_x0020_1">
  <metadata id="CorelCorpID_0Corel-Layer"/>
  <g id="_1720998092528">
   <ellipse class="fil0" cx="11522" cy="22067" rx="5577" ry="976"/>
   <ellipse class="fil1" transform="matrix(0.7071 -0.7071 0.7071 0.7071 6815.76 15481.2)" rx="531" ry="2165"/>
   <path class="fil2" d="M12990 12347c611,-395 1308,-1028 1738,-1544 980,-1177 494,-1641 361,-1734 -244,-170 -804,-41 -1263,432 157,-173 518,-607 608,-760 352,-585 221,-1125 -45,-1284 -289,-175 -825,-199 -1565,818 -793,1088 -2073,2049 -2254,2180 0,0 -2,0 -2,-2 760,-647 2025,-2195 1686,-3165 -179,-511 -1017,-613 -1576,471 -456,881 -974,1649 -2140,2759 -138,-348 99,-1043 67,-1643 -67,-1287 -954,-1380 -1425,-1213 -628,220 315,1692 -365,3003 -371,717 -1101,1755 -274,2979l-2608 1913c471,1216 1358,2081 2511,2727l2275 -2196c808,505 2328,-660 3720,-1980 1061,-570 1391,-734 2026,-1051 459,-229 1081,-520 1053,-868 -58,-736 -1651,-386 -2528,158z"/>
   <path class="fil3" d="M8111 9184c-335,1546 427,1334 427,1334 0,0 -67,-4 0,-825 67,-820 160,-1742 -695,-2055 -106,397 477,576 268,1546z"/>
   <g>
    <path class="fil3" d="M14447 7500c61,125 80,378 -244,963 -377,686 -2370,2707 -2843,2755 350,405 216,250 216,250 0,0 2597,-1731 3063,-3292 37,-305 -49,-551 -192,-676z"/>
    <path class="fil3" d="M15104 9082c41,195 -9,521 -288,903 -1165,1604 -2646,2435 -2646,2435 49,97 120,182 196,330 1047,-626 2321,-1897 2360,-1945 945,-1133 529,-1606 378,-1723z"/>
    <path class="fil3" d="M12122 7079c-764,2420 -2083,3191 -2083,3191 95,-69 259,58 531,185 1004,-867 1446,-1798 1714,-2536 41,-225 37,-441 -30,-631 -26,-82 -71,-153 -132,-209z"/>
    <path class="fil3" d="M15520 12189c-19,-229 -188,-354 -436,-399 119,183 145,427 -112,557 -548,274 -1842,1058 -2310,1045 -138,-5 -274,41 -378,134 -1365,1215 -3049,2316 -3813,1837l-2306 1954c-917,-514 -870,319 281,965l2276 -2196c807,505 2327,-661 3720,-1980 1060,-570 1390,-734 2025,-1051 460,-229 1081,-518 1053,-866z"/>
   </g>
   <path class="fil4 str0" d="M10039 10270c0,0 1338,248 2465,2819"/>
   <line class="fil4 str0" x1="12368" y1="12748" x2="12990" y2= "12347" />
   <path class="fil5" d="M5282 13949c-367,704 2557,3499 3064,3063 0,0 -1362,1276 -1714,1617 -911,100 -3206,-1768 -3144,-3329l1794 -1351z"/>
   <path class="fil6" d="M7221 16552c-460,432 -1438,1350 -1751,1654 447,290 872,456 1162,423 349,-341 1714,-1617 1714,-1617 -173,147 -620,-75 -1125,-460z"/>
   <circle class="fil7" cx="9084" cy="9769" r="1198"/>
   <path class="fil8" d="M9577 8676c136,182 215,408 215,652 0,605 -490,1095 -1094,1095 -296,0 -561,-117 -760,-307 149,493 607,851 1146,851 663,0 1199,-537 1199,-1198 0,-486 -290,-905 -706,-1093z"/>
   <path class="fil4 str1" d="M8476 10378c-156,-156 -253,-372 -253,-609"/>
   <circle class="fil7" cx="10168" cy="11973" r="1529"/>
   <path class="fil8" d="M10796 10581c173,233 275,520 275,831 0,771 -626,1397 -1397,1397 -376,0 -717,-149 -967,-391 190,626 772,1084 1461,1084 844,0 1529,-685 1529,-1529 0,-619 -369,-1153 -901,-1392z"/>
   <path class="fil4 str1" d="M9393 12748c-199,-198 -322,-472 -322,-775"/>
   <circle class="fil7" transform="matrix(0.1891 -0.982 0.982 0.1891 11807 9403.5)" r="997"/>
   <path class="fil8" d="M12215 8495c112,151 179,339 179,544 0,503 -408,911 -911,911 -246,0 -469,-97 -633,-254 126,410 506,708 955,708 550,0 997,-447 997,-998 2,-406 -240,-755 -587,-911z"/>
   <path class="fil4 str1" d="M11299 9911c-129,-129 -209,-308 -209,-505"/>
   <circle class="fil7" cx="7556" cy="13206" r="890"/>
   <path class="fil8" d="M7923 12394c101,136 160,303 160,484 0,449 -365,812 -812,812 -218,0 -417,-87 -564,-227 110,365 449,630 851,630 492,0 889,-397 889,-889 -2,-359 -215,-669 -524,-810z"/>
   <path class="fil4 str1" d="M7107 13657c-117,-116 -188,-274 -188,-451"/>
   <circle class="fil7" cx="5429" cy="10762" r="609"/>
   <path class="fil8" d="M5677 10207c70,93 111,207 111,331 0,306 -249,554 -555,554 -149,0 -285,-58 -385,-155 76,250 307,432 581,432 337,0 609,-272 609,-609 -2,-244 -149,-458 -361,-553z"/>
   <path class="fil4 str1" d="M5120 11071c-79,-80 -127,-188 -127,-309"/>
   <circle class="fil7" cx="5664" cy="7711" r="304"/>
   <path class="fil8" d="M5790 7433c34,45 54,103 54,166 0,153 -126,279 -279,279 -75,0 -142,-31 -192,-78 39,125 153,216 292,216 168,0 304,-136 304,-305 0,-123 -76,-231 -179,-278z"/>
   <circle class="fil7" cx="14665" cy="7901" r="654"/>
   <path class="fil8" d="M14935 7305c74,100 119,223 119,357 0,330 -268,598 -598,598 -162,0 -307,-65 -415,-166 82,267 331,464 627,464 362,0 654,-294 654,-654 -2,-268 -160,-497 -387,-599z"/>
   <path class="fil4 str1" d="M14333 8234c-84,-84 -138,-203 -138,-333"/>
   <g>
    <circle class="fil7" cx="12740" cy="16853" r="447"/>
    <path class="fil8" d="M12923 16445c50,69 80,153 80,244 0,226 -184,408 -408,408 -110,0 -210,-44 -283,-115 56,184 227,317 428,317 248,0 446,-200 446,-446 0,-182 -108,-339 -263,-408z"/>
    <circle class="fil4 str0" cx="12740" cy="16853" r="447"/>
    <path class="fil4 str1" d="M12513 17079c-58,-58 -95,-138 -95,-226"/>
   </g>
   <circle class="fil7" cx="10568" cy="7757" r="654"/>
   <path class="fil8" d="M10837 7159c74,99 119,222 119,356 0,330 -268,598 -598,598 -162,0 -306,-65 -414,-166 82,267 330,464 626,464 362,0 654,-294 654,-654 -2,-266 -160,-495 -387,-598z"/>
   <path class="fil4 str1" d="M10235 8016c-67,-67 -108,-158 -108,-259"/>
   <circle class="fil7" cx="11274" cy="13618" r="2058"/>
   <path class="fil8" d="M12120 11742c233,313 371,702 371,1121 0,1038 -842,1880 -1880,1880 -508,0 -965,-201 -1304,-527 257,845 1040,1460 1969,1460 1138,0 2057,-922 2057,-2058 0,-835 -498,-1554 -1213,-1876z"/>
   <path class="fil4 str1" d="M10231 14663c-268,-267 -434,-637 -434,-1042"/>
   <g>
    <circle class="fil7" cx="13841" cy="13284" r="1077"/>
    <path class="fil8" d="M14283 12301c121,164 195,367 195,585 0,545 -441,985 -985,985 -266,0 -505,-106 -682,-274 134,442 544,762 1030,762 593,0 1077,-482 1077,-1077 0,-434 -261,-812 -635,-981z"/>
    <circle class="fil4 str0" cx="13841" cy="13284" r="1077"/>
    <path class="fil4 str1" d="M13294 13830c-140,-140 -226,-333 -226,-546"/>
   </g>
   <ellipse class="fil1" transform="matrix(0.7761 -0.6306 0.6306 0.7761 16293.5 17685.7)" rx="2165" ry="531"/>
   <path class="fil9" d="M13813 11263c-331,-650 -888,-1408 -1356,-1887 -1069,-1097 -1581,-661 -1686,-538 -197,227 -124,797 297,1302 -155,-172 -550,-576 -693,-684 -546,-410 -1096,-335 -1282,-89 -203,270 -283,801 652,1641 1002,900 1824,2271 1937,2466 0,0 0,0 -3,2 -565,-823 -1975,-2241 -2975,-2004 -526,126 -714,948 307,1617 829,545 1539,1140 2524,2414 -361,102 -1028,-205 -1628,-235 -1287,-65 -1470,807 -1354,1291 156,648 1717,-138 2949,671 674,443 1633,1276 2937,581l1634 2790c1257,-344 2211,-1136 2971,-2216l-1950 -2491c587,-751 -419,-2384 -1587,-3903 -457,-1115 -587,-1460 -837,-2125 -182,-481 -339,-1159 -754,-1138 -891,46 -555,1604 -103,2535z"/>
   <g>
    <path class="fil3" d="M9138 9272c130,-47 385,-39 933,341 643,447 1997,2386 2165,2691 260,468 555,233 555,233 0,0 -1455,-2762 -2960,-3388 -298,-67 -552,-4 -693,123z"/>
    <path class="fil3" d="M10781 8782c197,-19 518,61 870,378 1475,1326 1702,2392 2097,2770 80,76 244,11 399,-50 -514,-1105 -1649,-2502 -1692,-2547 -1030,-1054 -1542,-689 -1674,-551z"/>
    <path class="fil3" d="M8482 11541c2327,1009 2623,1890 2751,1959 127,69 293,190 446,-69 -760,-1089 -1640,-1624 -2346,-1965 -221,-65 -434,-82 -631,-37 -82,22 -157,58 -220,112z"/>
    <path class="fil3" d="M13916 8728c-231,-4 -2,251 99,521 216,574 862,1941 801,2407 -17,138 113,501 195,615 1069,1483 1673,3036 1330,3681 -357,667 1435,2652 1435,2652 -606,859 506,818 1268,-262l-1950 -2489c587,-751 -419,-2384 -1587,-3904 -457,-1114 -587,-1459 -837,-2124 -182,-481 -406,-1090 -754,-1097z"/>
   </g>
   <path class="fil5" d="M14611 19053c663,438 3744,-2181 3362,-2732 0,0 1127,1488 1431,1872 5,918 -2087,3008 -3633,2785l-1160 -1925z"/>
   <path class="fil6" d="M17401 17390c382,503 1194,1570 1464,1913 334,-414 542,-820 542,-1112 -305,-384 -1432,-1872 -1432,-1872 127,188 -140,611 -574,1071z"/>
  </g>
 </g>
</svg>
